<svg width="960" height="720" viewBox="0 0 960 720" fill="none" xmlns="http://www.w3.org/2000/svg">
  <rect width="960" height="720" rx="28" fill="#111827"/>
  <rect x="56" y="56" width="848" height="608" rx="24" fill="#E5E7EB"/>
  <rect x="92" y="92" width="456" height="536" rx="20" fill="#FFFFFF"/>
  <text x="126" y="144" fill="#111827" font-family="Arial, sans-serif" font-size="30" font-weight="700">Attendance note PDF</text>
  <text x="126" y="184" fill="#6B7280" font-family="Arial, sans-serif" font-size="18">Ready to send to the instructing firm or archive.</text>
  <rect x="126" y="214" width="388" height="18" rx="9" fill="#D1D5DB"/>
  <rect x="126" y="248" width="388" height="18" rx="9" fill="#E5E7EB"/>
  <rect x="126" y="282" width="320" height="18" rx="9" fill="#E5E7EB"/>
  <rect x="126" y="334" width="388" height="104" rx="16" fill="#F9FAFB" stroke="#D1D5DB"/>
  <text x="150" y="372" fill="#111827" font-family="Arial, sans-serif" font-size="22" font-weight="700">Matter summary</text>
  <text x="150" y="408" fill="#4B5563" font-family="Arial, sans-serif" font-size="18">Arrival, consultation, interview, and outcome details</text>
  <text x="150" y="436" fill="#4B5563" font-family="Arial, sans-serif" font-size="18">all exported from the same working record.</text>
  <rect x="126" y="466" width="388" height="120" rx="16" fill="#FEF3C7"/>
  <text x="150" y="504" fill="#92400E" font-family="Arial, sans-serif" font-size="22" font-weight="700">Billing block</text>
  <text x="150" y="540" fill="#92400E" font-family="Arial, sans-serif" font-size="18">LAA code, stage, mileage, waiting, and fee totals</text>
  <text x="150" y="568" fill="#92400E" font-family="Arial, sans-serif" font-size="18">kept alongside the attendance note, not in a second file.</text>
  <rect x="584" y="92" width="284" height="250" rx="20" fill="#0F172A"/>
  <text x="614" y="138" fill="#F8FAFC" font-family="Arial, sans-serif" font-size="28" font-weight="700">Firm ledger</text>
  <rect x="614" y="166" width="224" height="54" rx="12" fill="#1E293B"/>
  <text x="636" y="198" fill="#F8FAFC" font-family="Arial, sans-serif" font-size="20">Defence firm A</text>
  <rect x="614" y="232" width="224" height="54" rx="12" fill="#1E293B"/>
  <text x="636" y="264" fill="#F8FAFC" font-family="Arial, sans-serif" font-size="20">Defence firm B</text>
  <rect x="584" y="372" width="284" height="256" rx="20" fill="#FFFFFF"/>
  <text x="614" y="418" fill="#111827" font-family="Arial, sans-serif" font-size="28" font-weight="700">Time and totals</text>
  <text x="614" y="460" fill="#374151" font-family="Arial, sans-serif" font-size="19">Attendance: 3h 10m</text>
  <text x="614" y="492" fill="#374151" font-family="Arial, sans-serif" font-size="19">Travel: 1h 05m</text>
  <text x="614" y="524" fill="#374151" font-family="Arial, sans-serif" font-size="19">Waiting: 0h 40m</text>
  <rect x="614" y="548" width="224" height="48" rx="12" fill="#DCFCE7"/>
  <text x="640" y="578" fill="#166534" font-family="Arial, sans-serif" font-size="22" font-weight="700">PDF + billing aligned</text>
</svg>
