<?xml version="1.0" encoding="UTF-8"?>
<svg xmlns="http://www.w3.org/2000/svg" width="1200" height="630" viewBox="0 0 1200 630" role="img" aria-labelledby="t">
  <title id="t">PoliceStationRepUK blog - Pre-interview consultation</title>
  <defs>
    <linearGradient id="g" x1="0" y1="0" x2="1" y2="1">
      <stop offset="0%" stop-color="#0f172a"/>
      <stop offset="100%" stop-color="#1e3a5f"/>
    </linearGradient>
    <filter id="shadow" x="-20%" y="-20%" width="140%" height="140%">
      <feDropShadow dx="0" dy="4" stdDeviation="8" flood-opacity="0.35"/>
    </filter>
  </defs>
  <rect width="1200" height="630" fill="url(#g)"/>
  <rect x="0" y="0" width="1200" height="8" fill="#c9a227"/>
  <g opacity="0.07" stroke="#ffffff" stroke-width="1">
    <path d="M0 120 H1200 M0 240 H1200 M0 360 H1200 M0 480 H1200"/>
    <path d="M150 0 V630 M300 0 V630 M450 0 V630 M600 0 V630 M750 0 V630 M900 0 V630 M1050 0 V630"/>
  </g>
  <rect x="72" y="420" width="200" height="6" rx="3" fill="#c9a227" filter="url(#shadow)"/>
  <text x="72" y="120" fill="#94a3b8" font-size="22" font-family="ui-sans-serif,system-ui,sans-serif">PoliceStationRepUK | Blog</text>
  <text x="72" y="190" fill="#f8fafc" font-size="36" font-family="ui-sans-serif,system-ui,sans-serif" font-weight="700">Pre-interview</text>
  <text x="72" y="240" fill="#f8fafc" font-size="36" font-family="ui-sans-serif,system-ui,sans-serif" font-weight="700">consultation</text>
  <text x="72" y="290" fill="#cbd5e1" font-size="24" font-family="ui-sans-serif,system-ui,sans-serif">Reps guide</text>
  <rect x="900" y="72" width="228" height="140" rx="12" fill="#1e293b" stroke="#c9a227" stroke-opacity="0.35" stroke-width="2"/>
  <path d="M930 180 L930 120 L1000 120 L1000 180 M945 135 L985 135 M945 150 L985 150 M945 165 L970 165" stroke="#c9a227" stroke-width="2.5" fill="none"/>
</svg>
