<?xml version="1.0" encoding="UTF-8"?>
<svg xmlns="http://www.w3.org/2000/svg" width="1200" height="630" viewBox="0 0 1200 630" role="img" aria-labelledby="t">
  <title id="t">PoliceStationRepUK blog - Sentencing Act 2026 key changes</title>
  <defs>
    <linearGradient id="g" x1="0" y1="0" x2="1" y2="1">
      <stop offset="0%" stop-color="#0f172a"/>
      <stop offset="100%" stop-color="#1e3a5f"/>
    </linearGradient>
    <filter id="shadow" x="-20%" y="-20%" width="140%" height="140%">
      <feDropShadow dx="0" dy="4" stdDeviation="8" flood-opacity="0.35"/>
    </filter>
  </defs>
  <rect width="1200" height="630" fill="url(#g)"/>
  <rect x="0" y="0" width="1200" height="8" fill="#c9a227"/>
  <g opacity="0.05" stroke="#ffffff" stroke-width="1">
    <path d="M0 120 H1200 M0 240 H1200 M0 360 H1200 M0 480 H1200"/>
    <path d="M150 0 V630 M300 0 V630 M450 0 V630 M600 0 V630 M750 0 V630 M900 0 V630 M1050 0 V630"/>
  </g>
  <g transform="translate(900,80)" opacity="0.9">
    <rect width="228" height="190" rx="14" fill="#1e293b" stroke="#c9a227" stroke-opacity="0.35" stroke-width="2"/>
    <line x1="114" y1="30" x2="114" y2="90" stroke="#c9a227" stroke-width="3" stroke-linecap="round"/>
    <line x1="60" y1="55" x2="168" y2="55" stroke="#c9a227" stroke-width="3" stroke-linecap="round"/>
    <line x1="60" y1="55" x2="50" y2="95" stroke="#c9a227" stroke-width="2.5" stroke-linecap="round"/>
    <line x1="60" y1="55" x2="70" y2="95" stroke="#c9a227" stroke-width="2.5" stroke-linecap="round"/>
    <path d="M44 95 Q60 115 76 95" stroke="#c9a227" stroke-width="2.5" fill="none" stroke-linecap="round"/>
    <line x1="168" y1="55" x2="158" y2="95" stroke="#c9a227" stroke-width="2.5" stroke-linecap="round"/>
    <line x1="168" y1="55" x2="178" y2="95" stroke="#c9a227" stroke-width="2.5" stroke-linecap="round"/>
    <path d="M152 95 Q168 115 184 95" stroke="#c9a227" stroke-width="2.5" fill="none" stroke-linecap="round"/>
    <rect x="90" y="88" width="48" height="8" rx="4" fill="#c9a227" opacity="0.7"/>
    <text x="114" y="145" text-anchor="middle" fill="#94a3b8" font-size="15" font-family="ui-sans-serif,system-ui,sans-serif">SENTENCING</text>
    <text x="114" y="168" text-anchor="middle" fill="#c9a227" font-size="18" font-family="ui-sans-serif,system-ui,sans-serif" font-weight="700">2026</text>
  </g>
  <rect x="72" y="420" width="220" height="6" rx="3" fill="#c9a227" filter="url(#shadow)"/>
  <text x="72" y="120" fill="#94a3b8" font-size="22" font-family="ui-sans-serif,system-ui,sans-serif">PoliceStationRepUK | Blog</text>
  <text x="72" y="195" fill="#f8fafc" font-size="42" font-family="ui-sans-serif,system-ui,sans-serif" font-weight="700">Sentencing Act</text>
  <text x="72" y="250" fill="#c9a227" font-size="42" font-family="ui-sans-serif,system-ui,sans-serif" font-weight="700">2026</text>
  <text x="72" y="310" fill="#cbd5e1" font-size="24" font-family="ui-sans-serif,system-ui,sans-serif">Key changes for reps</text>
  <text x="72" y="345" fill="#cbd5e1" font-size="24" font-family="ui-sans-serif,system-ui,sans-serif">and criminal defence</text>
  <rect x="72" y="460" width="260" height="36" rx="18" fill="#1e293b" stroke="#c9a227" stroke-opacity="0.4" stroke-width="1.5"/>
  <text x="202" y="484" text-anchor="middle" fill="#e2e8f0" font-size="14" font-family="ui-sans-serif,system-ui,sans-serif" font-weight="600">Suspended sentences reform</text>
  <rect x="350" y="460" width="260" height="36" rx="18" fill="#1e293b" stroke="#c9a227" stroke-opacity="0.4" stroke-width="1.5"/>
  <text x="480" y="484" text-anchor="middle" fill="#e2e8f0" font-size="14" font-family="ui-sans-serif,system-ui,sans-serif" font-weight="600">Presumption under 12 months</text>
  <rect x="628" y="460" width="220" height="36" rx="18" fill="#1e293b" stroke="#c9a227" stroke-opacity="0.4" stroke-width="1.5"/>
  <text x="738" y="484" text-anchor="middle" fill="#e2e8f0" font-size="14" font-family="ui-sans-serif,system-ui,sans-serif" font-weight="600">Community sentences</text>
  <text x="72" y="560" fill="#64748b" font-size="14" font-family="ui-sans-serif,system-ui,sans-serif">Royal Assent: 22 Jan 2026 | In force: 22 March 2026</text>
</svg>
